<?xml version="1.0" encoding="UTF-8" standalone="no"?>
<!DOCTYPE svg PUBLIC "-//W3C//DTD SVG 1.1//EN"
 "http://www.w3.org/Graphics/SVG/1.1/DTD/svg11.dtd">
<!-- Generated by graphviz version 2.43.0 (0)
 -->
<!-- Title: G Pages: 1 -->
<svg width="155pt" height="156pt"
 viewBox="0.00 0.00 154.60 156.20" xmlns="http://www.w3.org/2000/svg" xmlns:xlink="http://www.w3.org/1999/xlink">
<g id="graph0" class="graph" transform="scale(1 1) rotate(0) translate(4 152.2)">
<title>G</title>
<polygon fill="white" stroke="transparent" points="-4,4 -4,-152.2 150.6,-152.2 150.6,4 -4,4"/>
<!-- A -->
<g id="node1" class="node">
<title>A</title>
<ellipse fill="none" stroke="black" cx="51.66" cy="-133.7" rx="14.5" ry="14.5"/>
<text text-anchor="middle" x="51.66" y="-130.6" font-family="Times,serif" font-size="12.00">A</text>
</g>
<!-- B -->
<g id="node2" class="node">
<title>B</title>
<ellipse fill="none" stroke="black" cx="14.5" cy="-69.51" rx="14.5" ry="14.5"/>
<text text-anchor="middle" x="14.5" y="-66.41" font-family="Times,serif" font-size="12.00">B</text>
</g>
<!-- A&#45;&#45;B -->
<g id="edge1" class="edge">
<title>A&#45;&#45;B</title>
<path fill="none" stroke="black" d="M44.32,-121.02C37.8,-109.76 28.34,-93.41 21.83,-82.16"/>
</g>
<!-- C -->
<g id="node3" class="node">
<title>C</title>
<ellipse fill="none" stroke="black" cx="64.34" cy="-14.5" rx="14.5" ry="14.5"/>
<text text-anchor="middle" x="64.34" y="-11.4" font-family="Times,serif" font-size="12.00">C</text>
</g>
<!-- A&#45;&#45;C -->
<g id="edge2" class="edge">
<title>A&#45;&#45;C</title>
<path fill="none" stroke="black" d="M53.21,-119.08C55.65,-96.2 60.33,-52.19 62.77,-29.24"/>
</g>
<!-- D -->
<g id="node4" class="node">
<title>D</title>
<ellipse fill="none" stroke="black" cx="132.1" cy="-44.68" rx="14.5" ry="14.5"/>
<text text-anchor="middle" x="132.1" y="-41.58" font-family="Times,serif" font-size="12.00">D</text>
</g>
<!-- A&#45;&#45;D -->
<g id="edge3" class="edge">
<title>A&#45;&#45;D</title>
<path fill="none" stroke="black" d="M61.52,-122.78C76.96,-105.7 106.66,-72.82 122.15,-55.68"/>
</g>
<!-- E -->
<g id="node5" class="node">
<title>E</title>
<ellipse fill="none" stroke="black" cx="124.18" cy="-118.46" rx="14.5" ry="14.5"/>
<text text-anchor="middle" x="124.18" y="-115.36" font-family="Times,serif" font-size="12.00">E</text>
</g>
<!-- A&#45;&#45;E -->
<g id="edge4" class="edge">
<title>A&#45;&#45;E</title>
<path fill="none" stroke="black" d="M65.99,-130.69C78.7,-128.02 97.18,-124.14 109.88,-121.47"/>
</g>
<!-- B&#45;&#45;C -->
<g id="edge5" class="edge">
<title>B&#45;&#45;C</title>
<path fill="none" stroke="black" d="M24.35,-58.64C33.08,-48.99 45.78,-34.98 54.51,-25.34"/>
</g>
<!-- B&#45;&#45;D -->
<g id="edge6" class="edge">
<title>B&#45;&#45;D</title>
<path fill="none" stroke="black" d="M28.92,-66.46C51.49,-61.7 94.92,-52.53 117.56,-47.75"/>
</g>
<!-- B&#45;&#45;E -->
<g id="edge7" class="edge">
<title>B&#45;&#45;E</title>
<path fill="none" stroke="black" d="M27.95,-75.51C49,-84.91 89.51,-102.98 110.62,-112.41"/>
</g>
<!-- C&#45;&#45;D -->
<g id="edge8" class="edge">
<title>C&#45;&#45;D</title>
<path fill="none" stroke="black" d="M77.73,-20.46C89.6,-25.75 106.87,-33.44 118.74,-38.73"/>
</g>
<!-- C&#45;&#45;E -->
<g id="edge9" class="edge">
<title>C&#45;&#45;E</title>
<path fill="none" stroke="black" d="M71.68,-27.25C83.16,-47.2 105.26,-85.59 116.79,-105.61"/>
</g>
<!-- D&#45;&#45;E -->
<g id="edge10" class="edge">
<title>D&#45;&#45;E</title>
<path fill="none" stroke="black" d="M130.53,-59.26C129.15,-72.19 127.13,-90.99 125.74,-103.92"/>
</g>
</g>
</svg>
