<?xml version="1.0" encoding="UTF-8" standalone="no"?>
<!DOCTYPE svg PUBLIC "-//W3C//DTD SVG 1.1//EN"
 "http://www.w3.org/Graphics/SVG/1.1/DTD/svg11.dtd">
<!-- Generated by graphviz version 2.43.0 (0)
 -->
<!-- Title: G Pages: 1 -->
<svg width="258pt" height="159pt"
 viewBox="0.00 0.00 258.39 159.01" xmlns="http://www.w3.org/2000/svg" xmlns:xlink="http://www.w3.org/1999/xlink">
<g id="graph0" class="graph" transform="scale(1 1) rotate(0) translate(4 155.01)">
<title>G</title>
<polygon fill="white" stroke="transparent" points="-4,4 -4,-155.01 254.39,-155.01 254.39,4 -4,4"/>
<!-- A -->
<g id="node1" class="node">
<title>A</title>
<ellipse fill="none" stroke="black" cx="217.89" cy="-75.52" rx="14.5" ry="14.5"/>
<text text-anchor="middle" x="217.89" y="-72.42" font-family="Times,serif" font-size="12.00">A</text>
</g>
<!-- A&#45;&gt;A -->
<g id="edge1" class="edge">
<title>A&#45;&gt;A</title>
<path fill="none" stroke="black" d="M231.25,-81.54C240.84,-83.5 250.39,-81.49 250.39,-75.52 250.39,-71.78 246.66,-69.59 241.52,-68.96"/>
<polygon fill="black" stroke="black" points="241.05,-65.48 231.25,-69.49 241.41,-72.47 241.05,-65.48"/>
</g>
<!-- B -->
<g id="node2" class="node">
<title>B</title>
<ellipse fill="none" stroke="black" cx="152.58" cy="-112.39" rx="14.5" ry="14.5"/>
<text text-anchor="middle" x="152.58" y="-109.29" font-family="Times,serif" font-size="12.00">B</text>
</g>
<!-- A&#45;&gt;B -->
<g id="edge2" class="edge">
<title>A&#45;&gt;B</title>
<path fill="none" stroke="black" d="M204.99,-82.8C196.22,-87.75 184.41,-94.42 174.22,-100.17"/>
<polygon fill="black" stroke="black" points="172.44,-97.16 165.45,-105.12 175.88,-103.25 172.44,-97.16"/>
</g>
<!-- C -->
<g id="node3" class="node">
<title>C</title>
<ellipse fill="none" stroke="black" cx="152.62" cy="-38.64" rx="14.5" ry="14.5"/>
<text text-anchor="middle" x="152.62" y="-35.54" font-family="Times,serif" font-size="12.00">C</text>
</g>
<!-- A&#45;&gt;C -->
<g id="edge3" class="edge">
<title>A&#45;&gt;C</title>
<path fill="none" stroke="black" d="M205,-68.23C196.24,-63.28 184.43,-56.61 174.25,-50.86"/>
<polygon fill="black" stroke="black" points="175.92,-47.78 165.49,-45.91 172.47,-53.88 175.92,-47.78"/>
</g>
<!-- B&#45;&gt;C -->
<g id="edge4" class="edge">
<title>B&#45;&gt;C</title>
<path fill="none" stroke="black" d="M152.58,-97.82C152.59,-88.02 152.6,-74.86 152.6,-63.43"/>
<polygon fill="black" stroke="black" points="156.1,-63.18 152.61,-53.18 149.1,-63.18 156.1,-63.18"/>
</g>
<!-- D -->
<g id="node4" class="node">
<title>D</title>
<ellipse fill="none" stroke="black" cx="67.26" cy="-136.51" rx="14.5" ry="14.5"/>
<text text-anchor="middle" x="67.26" y="-133.41" font-family="Times,serif" font-size="12.00">D</text>
</g>
<!-- B&#45;&gt;D -->
<g id="edge5" class="edge">
<title>B&#45;&gt;D</title>
<path fill="none" stroke="black" d="M138.49,-116.37C125.65,-120.01 106.41,-125.45 91.16,-129.76"/>
<polygon fill="black" stroke="black" points="90.04,-126.44 81.37,-132.52 91.95,-133.17 90.04,-126.44"/>
</g>
<!-- F -->
<g id="node5" class="node">
<title>F</title>
<ellipse fill="none" stroke="black" cx="67.26" cy="-14.5" rx="14.5" ry="14.5"/>
<text text-anchor="middle" x="67.26" y="-11.4" font-family="Times,serif" font-size="12.00">F</text>
</g>
<!-- C&#45;&gt;F -->
<g id="edge6" class="edge">
<title>C&#45;&gt;F</title>
<path fill="none" stroke="black" d="M138.52,-34.65C125.67,-31.02 106.43,-25.58 91.17,-21.26"/>
<polygon fill="black" stroke="black" points="91.95,-17.85 81.38,-18.49 90.05,-24.58 91.95,-17.85"/>
</g>
<!-- E -->
<g id="node6" class="node">
<title>E</title>
<ellipse fill="none" stroke="black" cx="14.5" cy="-75.51" rx="14.5" ry="14.5"/>
<text text-anchor="middle" x="14.5" y="-72.41" font-family="Times,serif" font-size="12.00">E</text>
</g>
<!-- D&#45;&gt;E -->
<g id="edge7" class="edge">
<title>D&#45;&gt;E</title>
<path fill="none" stroke="black" d="M62.26,-122.75C55.8,-112.81 44.8,-99.57 34.91,-89.58"/>
<polygon fill="black" stroke="black" points="37.31,-87.03 27.65,-82.67 32.48,-92.1 37.31,-87.03"/>
</g>
<!-- E&#45;&gt;D -->
<g id="edge8" class="edge">
<title>E&#45;&gt;D</title>
<path fill="none" stroke="black" d="M19.5,-89.27C25.97,-99.21 36.97,-112.45 46.86,-122.45"/>
<polygon fill="black" stroke="black" points="44.46,-124.99 54.11,-129.35 49.28,-119.92 44.46,-124.99"/>
</g>
<!-- E&#45;&gt;F -->
<g id="edge9" class="edge">
<title>E&#45;&gt;F</title>
<path fill="none" stroke="black" d="M24.18,-64.32C31.69,-55.63 42.27,-43.4 51.07,-33.23"/>
<polygon fill="black" stroke="black" points="53.75,-35.47 57.65,-25.62 48.46,-30.89 53.75,-35.47"/>
</g>
<!-- G -->
<g id="node7" class="node">
<title>G</title>
<ellipse fill="none" stroke="black" cx="94.5" cy="-78.5" rx="14.5" ry="14.5"/>
<text text-anchor="middle" x="94.5" y="-75.4" font-family="Times,serif" font-size="12.00">G</text>
</g>
</g>
</svg>
