<?xml version="1.0" encoding="UTF-8" standalone="no"?>
<!DOCTYPE svg PUBLIC "-//W3C//DTD SVG 1.1//EN"
 "http://www.w3.org/Graphics/SVG/1.1/DTD/svg11.dtd">
<!-- Generated by graphviz version 2.43.0 (0)
 -->
<!-- Title: G Pages: 1 -->
<svg width="305pt" height="98pt"
 viewBox="0.00 0.00 305.36 98.20" xmlns="http://www.w3.org/2000/svg" xmlns:xlink="http://www.w3.org/1999/xlink">
<g id="graph0" class="graph" transform="scale(1 1) rotate(0) translate(4 94.2)">
<title>G</title>
<polygon fill="white" stroke="transparent" points="-4,4 -4,-94.2 301.36,-94.2 301.36,4 -4,4"/>
<!-- A -->
<g id="node1" class="node">
<title>A</title>
<ellipse fill="none" stroke="black" cx="282.86" cy="-45.24" rx="14.5" ry="14.5"/>
<text text-anchor="middle" x="282.86" y="-42.14" font-family="Times,serif" font-size="12.00">A</text>
</g>
<!-- B -->
<g id="node2" class="node">
<title>B</title>
<ellipse fill="none" stroke="black" cx="191.55" cy="-14.61" rx="14.5" ry="14.5"/>
<text text-anchor="middle" x="191.55" y="-11.51" font-family="Times,serif" font-size="12.00">B</text>
</g>
<!-- A&#45;&gt;B -->
<g id="edge1" class="edge">
<title>A&#45;&gt;B</title>
<path fill="none" stroke="black" d="M268.99,-40.59C254.78,-35.82 232.41,-28.31 215.36,-22.59"/>
<polygon fill="black" stroke="black" points="216.14,-19.17 205.55,-19.3 213.92,-25.8 216.14,-19.17"/>
</g>
<!-- C -->
<g id="node3" class="node">
<title>C</title>
<ellipse fill="none" stroke="black" cx="191.37" cy="-75.61" rx="14.5" ry="14.5"/>
<text text-anchor="middle" x="191.37" y="-72.51" font-family="Times,serif" font-size="12.00">C</text>
</g>
<!-- A&#45;&gt;C -->
<g id="edge2" class="edge">
<title>A&#45;&gt;C</title>
<path fill="none" stroke="black" d="M268.97,-49.85C254.73,-54.58 232.31,-62.02 215.23,-67.69"/>
<polygon fill="black" stroke="black" points="213.79,-64.48 205.4,-70.96 215.99,-71.13 213.79,-64.48"/>
</g>
<!-- B&#45;&gt;C -->
<g id="edge3" class="edge">
<title>B&#45;&gt;C</title>
<path fill="none" stroke="black" d="M191.51,-29.38C191.49,-35.82 191.47,-43.56 191.45,-50.84"/>
<polygon fill="black" stroke="black" points="187.95,-50.97 191.42,-60.98 194.95,-50.99 187.95,-50.97"/>
</g>
<!-- D -->
<g id="node4" class="node">
<title>D</title>
<ellipse fill="none" stroke="black" cx="105.79" cy="-75.7" rx="14.5" ry="14.5"/>
<text text-anchor="middle" x="105.79" y="-72.6" font-family="Times,serif" font-size="12.00">D</text>
</g>
<!-- B&#45;&gt;D -->
<g id="edge4" class="edge">
<title>B&#45;&gt;D</title>
<path fill="none" stroke="black" d="M179.63,-23.1C165.8,-32.95 142.79,-49.35 126.12,-61.22"/>
<polygon fill="black" stroke="black" points="123.73,-58.63 117.61,-67.28 127.79,-64.33 123.73,-58.63"/>
</g>
<!-- E -->
<g id="node5" class="node">
<title>E</title>
<ellipse fill="none" stroke="black" cx="105.62" cy="-14.5" rx="14.5" ry="14.5"/>
<text text-anchor="middle" x="105.62" y="-11.4" font-family="Times,serif" font-size="12.00">E</text>
</g>
<!-- B&#45;&gt;E -->
<g id="edge5" class="edge">
<title>B&#45;&gt;E</title>
<path fill="none" stroke="black" d="M176.97,-14.59C164.26,-14.57 145.54,-14.55 130.46,-14.53"/>
<polygon fill="black" stroke="black" points="130.27,-11.03 120.27,-14.52 130.26,-18.03 130.27,-11.03"/>
</g>
<!-- C&#45;&gt;D -->
<g id="edge6" class="edge">
<title>C&#45;&gt;D</title>
<path fill="none" stroke="black" d="M176.86,-75.63C164.19,-75.64 145.55,-75.66 130.53,-75.68"/>
<polygon fill="black" stroke="black" points="130.38,-72.18 120.38,-75.69 130.38,-79.18 130.38,-72.18"/>
</g>
<!-- C&#45;&gt;E -->
<g id="edge7" class="edge">
<title>C&#45;&gt;E</title>
<path fill="none" stroke="black" d="M179.45,-67.12C165.63,-57.27 142.61,-40.86 125.95,-28.99"/>
<polygon fill="black" stroke="black" points="127.62,-25.88 117.44,-22.93 123.55,-31.58 127.62,-25.88"/>
</g>
<!-- D&#45;&gt;E -->
<g id="edge8" class="edge">
<title>D&#45;&gt;E</title>
<path fill="none" stroke="black" d="M105.75,-61.2C105.73,-54.66 105.71,-46.76 105.69,-39.33"/>
<polygon fill="black" stroke="black" points="109.19,-39.31 105.66,-29.32 102.19,-39.33 109.19,-39.31"/>
</g>
<!-- F -->
<g id="node6" class="node">
<title>F</title>
<ellipse fill="none" stroke="black" cx="14.5" cy="-45.25" rx="14.5" ry="14.5"/>
<text text-anchor="middle" x="14.5" y="-42.15" font-family="Times,serif" font-size="12.00">F</text>
</g>
<!-- D&#45;&gt;F -->
<g id="edge9" class="edge">
<title>D&#45;&gt;F</title>
<path fill="none" stroke="black" d="M91.93,-71.08C77.72,-66.33 55.35,-58.87 38.3,-53.19"/>
<polygon fill="black" stroke="black" points="39.09,-49.76 28.5,-49.91 36.87,-56.4 39.09,-49.76"/>
</g>
<!-- E&#45;&gt;F -->
<g id="edge10" class="edge">
<title>E&#45;&gt;F</title>
<path fill="none" stroke="black" d="M91.78,-19.17C77.6,-23.96 55.27,-31.49 38.26,-37.23"/>
<polygon fill="black" stroke="black" points="36.83,-34.02 28.47,-40.53 39.06,-40.65 36.83,-34.02"/>
</g>
</g>
</svg>
