<?xml version="1.0" encoding="UTF-8" standalone="no"?>
<!DOCTYPE svg PUBLIC "-//W3C//DTD SVG 1.1//EN"
 "http://www.w3.org/Graphics/SVG/1.1/DTD/svg11.dtd">
<!-- Generated by graphviz version 2.43.0 (0)
 -->
<!-- Title: 6 Pages: 1 -->
<svg width="354pt" height="163pt"
 viewBox="0.00 0.00 354.23 163.00" xmlns="http://www.w3.org/2000/svg" xmlns:xlink="http://www.w3.org/1999/xlink">
<g id="graph0" class="graph" transform="scale(1 1) rotate(0) translate(4 159)">
<title>6</title>
<polygon fill="white" stroke="transparent" points="-4,4 -4,-159 350.23,-159 350.23,4 -4,4"/>
<!-- 0 -->
<g id="node1" class="node">
<title>0</title>
<ellipse fill="none" stroke="black" cx="311.06" cy="-14.5" rx="14.5" ry="14.5"/>
<text text-anchor="middle" x="311.06" y="-11.4" font-family="Times,serif" font-size="12.00">0</text>
</g>
<!-- 1 -->
<g id="node2" class="node">
<title>1</title>
<ellipse fill="none" stroke="black" cx="276.66" cy="-63.04" rx="14.5" ry="14.5"/>
<text text-anchor="middle" x="276.66" y="-59.94" font-family="Times,serif" font-size="12.00">1</text>
</g>
<!-- 0&#45;&#45;1 -->
<g id="edge1" class="edge">
<title>0&#45;&#45;1</title>
<path fill="none" stroke="black" d="M302.38,-26.75C297.13,-34.16 290.45,-43.58 285.22,-50.97"/>
</g>
<!-- 2 -->
<g id="node3" class="node">
<title>2</title>
<ellipse fill="none" stroke="black" cx="331.73" cy="-87.83" rx="14.5" ry="14.5"/>
<text text-anchor="middle" x="331.73" y="-84.73" font-family="Times,serif" font-size="12.00">2</text>
</g>
<!-- 1&#45;&#45;2 -->
<g id="edge2" class="edge">
<title>1&#45;&#45;2</title>
<path fill="none" stroke="black" d="M289.99,-69.04C298.52,-72.88 309.56,-77.85 318.14,-81.71"/>
</g>
<!-- 3 -->
<g id="node4" class="node">
<title>3</title>
<ellipse fill="none" stroke="black" cx="246.06" cy="-102.51" rx="14.5" ry="14.5"/>
<text text-anchor="middle" x="246.06" y="-99.41" font-family="Times,serif" font-size="12.00">3</text>
</g>
<!-- 1&#45;&#45;3 -->
<g id="edge3" class="edge">
<title>1&#45;&#45;3</title>
<path fill="none" stroke="black" d="M267.64,-74.67C263.69,-79.77 259.07,-85.73 255.11,-90.83"/>
</g>
<!-- 4 -->
<g id="node5" class="node">
<title>4</title>
<ellipse fill="none" stroke="black" cx="205.29" cy="-69.15" rx="14.5" ry="14.5"/>
<text text-anchor="middle" x="205.29" y="-66.05" font-family="Times,serif" font-size="12.00">4</text>
</g>
<!-- 1&#45;&#45;4 -->
<g id="edge4" class="edge">
<title>1&#45;&#45;4</title>
<path fill="none" stroke="black" d="M261.87,-64.31C249.63,-65.36 232.31,-66.84 220.06,-67.89"/>
</g>
<!-- 4&#45;&#45;3 -->
<g id="edge5" class="edge">
<title>4&#45;&#45;3</title>
<path fill="none" stroke="black" d="M216.87,-78.62C222.42,-83.17 229.06,-88.6 234.6,-93.13"/>
</g>
<!-- 5 -->
<g id="node6" class="node">
<title>5</title>
<ellipse fill="none" stroke="black" cx="165.28" cy="-36.11" rx="14.5" ry="14.5"/>
<text text-anchor="middle" x="165.28" y="-33.01" font-family="Times,serif" font-size="12.00">5</text>
</g>
<!-- 4&#45;&#45;5 -->
<g id="edge6" class="edge">
<title>4&#45;&#45;5</title>
<path fill="none" stroke="black" d="M193.93,-59.77C188.48,-55.27 181.97,-49.89 176.53,-45.4"/>
</g>
<!-- 6 -->
<g id="node7" class="node">
<title>6</title>
<ellipse fill="none" stroke="black" cx="132.73" cy="-75.11" rx="14.5" ry="14.5"/>
<text text-anchor="middle" x="132.73" y="-72.01" font-family="Times,serif" font-size="12.00">6</text>
</g>
<!-- 4&#45;&#45;6 -->
<g id="edge7" class="edge">
<title>4&#45;&#45;6</title>
<path fill="none" stroke="black" d="M190.61,-70.36C178.02,-71.39 159.98,-72.88 147.39,-73.91"/>
</g>
<!-- 5&#45;&#45;6 -->
<g id="edge8" class="edge">
<title>5&#45;&#45;6</title>
<path fill="none" stroke="black" d="M155.69,-47.6C151.41,-52.72 146.39,-58.74 142.14,-63.84"/>
</g>
<!-- 7 -->
<g id="node8" class="node">
<title>7</title>
<ellipse fill="none" stroke="black" cx="109.88" cy="-129.18" rx="14.5" ry="14.5"/>
<text text-anchor="middle" x="109.88" y="-126.08" font-family="Times,serif" font-size="12.00">7</text>
</g>
<!-- 6&#45;&#45;7 -->
<g id="edge9" class="edge">
<title>6&#45;&#45;7</title>
<path fill="none" stroke="black" d="M127.08,-88.48C123.59,-96.73 119.13,-107.3 115.62,-115.59"/>
</g>
<!-- 8 -->
<g id="node9" class="node">
<title>8</title>
<ellipse fill="none" stroke="black" cx="68.38" cy="-54.46" rx="14.5" ry="14.5"/>
<text text-anchor="middle" x="68.38" y="-51.36" font-family="Times,serif" font-size="12.00">8</text>
</g>
<!-- 6&#45;&#45;8 -->
<g id="edge10" class="edge">
<title>6&#45;&#45;8</title>
<path fill="none" stroke="black" d="M118.77,-70.63C107.97,-67.17 93.1,-62.4 82.31,-58.94"/>
</g>
<!-- 9 -->
<g id="node10" class="node">
<title>9</title>
<ellipse fill="none" stroke="black" cx="14.5" cy="-39.22" rx="14.5" ry="14.5"/>
<text text-anchor="middle" x="14.5" y="-36.12" font-family="Times,serif" font-size="12.00">9</text>
</g>
<!-- 8&#45;&#45;9 -->
<g id="edge11" class="edge">
<title>8&#45;&#45;9</title>
<path fill="none" stroke="black" d="M54.22,-50.46C46.36,-48.23 36.62,-45.48 28.75,-43.25"/>
</g>
<!-- 10 -->
<g id="node11" class="node">
<title>10</title>
<ellipse fill="none" stroke="black" cx="176.5" cy="-140.5" rx="14.5" ry="14.5"/>
<text text-anchor="middle" x="176.5" y="-137.4" font-family="Times,serif" font-size="12.00">10</text>
</g>
</g>
</svg>
