<?xml version="1.0" encoding="UTF-8" standalone="no"?>
<!DOCTYPE svg PUBLIC "-//W3C//DTD SVG 1.1//EN"
 "http://www.w3.org/Graphics/SVG/1.1/DTD/svg11.dtd">
<!-- Generated by graphviz version 2.43.0 (0)
 -->
<!-- Title: G Pages: 1 -->
<svg width="319pt" height="154pt"
 viewBox="0.00 0.00 318.80 153.63" xmlns="http://www.w3.org/2000/svg" xmlns:xlink="http://www.w3.org/1999/xlink">
<g id="graph0" class="graph" transform="scale(1 1) rotate(0) translate(4 149.63)">
<title>G</title>
<polygon fill="white" stroke="transparent" points="-4,4 -4,-149.63 314.8,-149.63 314.8,4 -4,4"/>
<!-- A -->
<g id="node1" class="node">
<title>A</title>
<ellipse fill="none" stroke="black" cx="14.5" cy="-103.37" rx="14.5" ry="14.5"/>
<text text-anchor="middle" x="14.5" y="-100.27" font-family="Times,serif" font-size="12.00">A</text>
</g>
<!-- B -->
<g id="node2" class="node">
<title>B</title>
<ellipse fill="none" stroke="black" cx="101.08" cy="-85.35" rx="14.5" ry="14.5"/>
<text text-anchor="middle" x="101.08" y="-82.25" font-family="Times,serif" font-size="12.00">B</text>
</g>
<!-- A&#45;&#45;B -->
<g id="edge1" class="edge">
<title>A&#45;&#45;B</title>
<path fill="none" stroke="black" d="M28.8,-100.4C44.84,-97.06 70.71,-91.67 86.76,-88.33"/>
</g>
<!-- C -->
<g id="node3" class="node">
<title>C</title>
<ellipse fill="none" stroke="black" cx="22.13" cy="-45.44" rx="14.5" ry="14.5"/>
<text text-anchor="middle" x="22.13" y="-42.34" font-family="Times,serif" font-size="12.00">C</text>
</g>
<!-- A&#45;&#45;C -->
<g id="edge2" class="edge">
<title>A&#45;&#45;C</title>
<path fill="none" stroke="black" d="M16.42,-88.75C17.59,-79.9 19.07,-68.66 20.23,-59.85"/>
</g>
<!-- B&#45;&#45;C -->
<g id="edge3" class="edge">
<title>B&#45;&#45;C</title>
<path fill="none" stroke="black" d="M88.04,-78.76C73.41,-71.37 49.82,-59.44 35.18,-52.04"/>
</g>
<!-- D -->
<g id="node4" class="node">
<title>D</title>
<ellipse fill="none" stroke="black" cx="213.25" cy="-83.09" rx="14.5" ry="14.5"/>
<text text-anchor="middle" x="213.25" y="-79.99" font-family="Times,serif" font-size="12.00">D</text>
</g>
<!-- B&#45;&#45;D -->
<g id="edge4" class="edge">
<title>B&#45;&#45;D</title>
<path fill="none" stroke="black" d="M115.74,-85.06C137.24,-84.62 177.08,-83.82 198.58,-83.39"/>
</g>
<!-- E -->
<g id="node5" class="node">
<title>E</title>
<ellipse fill="none" stroke="black" cx="158.24" cy="-131.13" rx="14.5" ry="14.5"/>
<text text-anchor="middle" x="158.24" y="-128.03" font-family="Times,serif" font-size="12.00">E</text>
</g>
<!-- B&#45;&#45;E -->
<g id="edge5" class="edge">
<title>B&#45;&#45;E</title>
<path fill="none" stroke="black" d="M112.65,-94.62C122.56,-102.56 136.78,-113.94 146.69,-121.88"/>
</g>
<!-- F -->
<g id="node6" class="node">
<title>F</title>
<ellipse fill="none" stroke="black" cx="296.3" cy="-125.81" rx="14.5" ry="14.5"/>
<text text-anchor="middle" x="296.3" y="-122.71" font-family="Times,serif" font-size="12.00">F</text>
</g>
<!-- D&#45;&#45;F -->
<g id="edge6" class="edge">
<title>D&#45;&#45;F</title>
<path fill="none" stroke="black" d="M226.22,-89.77C241.74,-97.74 267.55,-111.02 283.14,-119.04"/>
</g>
<!-- G -->
<g id="node7" class="node">
<title>G</title>
<ellipse fill="none" stroke="black" cx="274.95" cy="-14.5" rx="14.5" ry="14.5"/>
<text text-anchor="middle" x="274.95" y="-11.4" font-family="Times,serif" font-size="12.00">G</text>
</g>
<!-- D&#45;&#45;G -->
<g id="edge7" class="edge">
<title>D&#45;&#45;G</title>
<path fill="none" stroke="black" d="M223.16,-72.07C234.61,-59.35 253.33,-38.53 264.86,-25.72"/>
</g>
<!-- E&#45;&#45;D -->
<g id="edge8" class="edge">
<title>E&#45;&#45;D</title>
<path fill="none" stroke="black" d="M169.37,-121.41C178.91,-113.07 192.59,-101.13 202.13,-92.8"/>
</g>
</g>
</svg>
