<?xml version="1.0" encoding="UTF-8" standalone="no"?>
<!DOCTYPE svg PUBLIC "-//W3C//DTD SVG 1.1//EN"
 "http://www.w3.org/Graphics/SVG/1.1/DTD/svg11.dtd">
<!-- Generated by graphviz version 2.43.0 (0)
 -->
<!-- Title: G Pages: 1 -->
<svg width="232pt" height="147pt"
 viewBox="0.00 0.00 231.53 147.34" xmlns="http://www.w3.org/2000/svg" xmlns:xlink="http://www.w3.org/1999/xlink">
<g id="graph0" class="graph" transform="scale(1 1) rotate(0) translate(4 143.34)">
<title>G</title>
<polygon fill="white" stroke="transparent" points="-4,4 -4,-143.34 227.53,-143.34 227.53,4 -4,4"/>
<!-- A -->
<g id="node1" class="node">
<title>A</title>
<ellipse fill="none" stroke="black" cx="14.5" cy="-54.43" rx="14.5" ry="14.5"/>
<text text-anchor="middle" x="14.5" y="-51.33" font-family="Times,serif" font-size="12.00">A</text>
</g>
<!-- B -->
<g id="node2" class="node">
<title>B</title>
<ellipse fill="none" stroke="black" cx="90.33" cy="-38.04" rx="14.5" ry="14.5"/>
<text text-anchor="middle" x="90.33" y="-34.94" font-family="Times,serif" font-size="12.00">B</text>
</g>
<!-- A&#45;&#45;B -->
<g id="edge1" class="edge">
<title>A&#45;&#45;B</title>
<path fill="none" stroke="black" d="M28.76,-51.35C42.32,-48.42 62.59,-44.04 76.13,-41.11"/>
<text text-anchor="middle" x="47.45" y="-50.03" font-family="Times,serif" font-size="14.00">1</text>
</g>
<!-- C -->
<g id="node3" class="node">
<title>C</title>
<ellipse fill="none" stroke="black" cx="63.5" cy="-102.27" rx="14.5" ry="14.5"/>
<text text-anchor="middle" x="63.5" y="-99.17" font-family="Times,serif" font-size="12.00">C</text>
</g>
<!-- A&#45;&#45;C -->
<g id="edge2" class="edge">
<title>A&#45;&#45;C</title>
<path fill="none" stroke="black" d="M24.89,-64.58C33.21,-72.69 44.81,-84.02 53.13,-92.14"/>
<text text-anchor="middle" x="34.01" y="-82.16" font-family="Times,serif" font-size="14.00">3</text>
</g>
<!-- B&#45;&#45;C -->
<g id="edge3" class="edge">
<title>B&#45;&#45;C</title>
<path fill="none" stroke="black" d="M84.64,-51.66C80.09,-62.56 73.74,-77.77 69.19,-88.67"/>
<text text-anchor="middle" x="71.91" y="-73.97" font-family="Times,serif" font-size="14.00">4</text>
</g>
<!-- D -->
<g id="node4" class="node">
<title>D</title>
<ellipse fill="none" stroke="black" cx="171.09" cy="-14.5" rx="14.5" ry="14.5"/>
<text text-anchor="middle" x="171.09" y="-11.4" font-family="Times,serif" font-size="12.00">D</text>
</g>
<!-- B&#45;&#45;D -->
<g id="edge4" class="edge">
<title>B&#45;&#45;D</title>
<path fill="none" stroke="black" d="M104.4,-33.94C119.13,-29.65 142.14,-22.94 156.91,-18.63"/>
<text text-anchor="middle" x="125.65" y="-30.09" font-family="Times,serif" font-size="14.00">7</text>
</g>
<!-- F -->
<g id="node5" class="node">
<title>F</title>
<ellipse fill="none" stroke="black" cx="156.71" cy="-64.17" rx="14.5" ry="14.5"/>
<text text-anchor="middle" x="156.71" y="-61.07" font-family="Times,serif" font-size="12.00">F</text>
</g>
<!-- B&#45;&#45;F -->
<g id="edge5" class="edge">
<title>B&#45;&#45;F</title>
<path fill="none" stroke="black" d="M104.08,-43.46C115.48,-47.94 131.58,-54.28 142.97,-58.77"/>
<text text-anchor="middle" x="118.53" y="-54.91" font-family="Times,serif" font-size="14.00">2</text>
</g>
<!-- G -->
<g id="node6" class="node">
<title>G</title>
<ellipse fill="none" stroke="black" cx="145.63" cy="-124.84" rx="14.5" ry="14.5"/>
<text text-anchor="middle" x="145.63" y="-121.74" font-family="Times,serif" font-size="12.00">G</text>
</g>
<!-- C&#45;&#45;G -->
<g id="edge6" class="edge">
<title>C&#45;&#45;G</title>
<path fill="none" stroke="black" d="M77.81,-106.2C92.88,-110.34 116.48,-116.83 131.49,-120.95"/>
<text text-anchor="middle" x="99.65" y="-117.38" font-family="Times,serif" font-size="14.00">3</text>
</g>
<!-- D&#45;&#45;F -->
<g id="edge8" class="edge">
<title>D&#45;&#45;F</title>
<path fill="none" stroke="black" d="M167,-28.6C165.04,-35.37 162.7,-43.46 160.75,-50.21"/>
<text text-anchor="middle" x="158.88" y="-28.21" font-family="Times,serif" font-size="14.00">9</text>
</g>
<!-- E -->
<g id="node7" class="node">
<title>E</title>
<ellipse fill="none" stroke="black" cx="209.03" cy="-79.63" rx="14.5" ry="14.5"/>
<text text-anchor="middle" x="209.03" y="-76.53" font-family="Times,serif" font-size="12.00">E</text>
</g>
<!-- D&#45;&#45;E -->
<g id="edge7" class="edge">
<title>D&#45;&#45;E</title>
<path fill="none" stroke="black" d="M178.4,-27.06C185.04,-38.44 194.77,-55.15 201.48,-66.66"/>
<text text-anchor="middle" x="184.94" y="-50.66" font-family="Times,serif" font-size="14.00">5</text>
</g>
<!-- F&#45;&#45;G -->
<g id="edge11" class="edge">
<title>F&#45;&#45;G</title>
<path fill="none" stroke="black" d="M154.08,-78.55C152.32,-88.22 150,-100.92 148.24,-110.56"/>
<text text-anchor="middle" x="146.16" y="-98.36" font-family="Times,serif" font-size="14.00">1</text>
</g>
<!-- E&#45;&#45;F -->
<g id="edge9" class="edge">
<title>E&#45;&#45;F</title>
<path fill="none" stroke="black" d="M195.01,-75.49C187.5,-73.27 178.28,-70.55 170.77,-68.33"/>
<text text-anchor="middle" x="175.89" y="-75.71" font-family="Times,serif" font-size="14.00">&#45;1</text>
</g>
<!-- E&#45;&#45;G -->
<g id="edge10" class="edge">
<title>E&#45;&#45;G</title>
<path fill="none" stroke="black" d="M197.11,-88.13C185.77,-96.21 168.82,-108.3 157.5,-116.37"/>
<text text-anchor="middle" x="172.3" y="-106.05" font-family="Times,serif" font-size="14.00">6</text>
</g>
</g>
</svg>
